<?xml version="1.0" standalone="no"?>
<!DOCTYPE svg PUBLIC "-//W3C//DTD SVG 20010904//EN"
 "http://www.w3.org/TR/2001/REC-SVG-20010904/DTD/svg10.dtd">
<svg version="1.0" xmlns="http://www.w3.org/2000/svg"
    width="50.000000pt"
    height="62.000000pt"
    viewBox="0 0 50.000000 62.000000"
    preserveAspectRatio="xMidYMid meet"
>
    <g
        transform="translate(0.000000,62.000000) scale(0.100000,-0.100000)"
        fill="#0080C0"
        stroke="none"
    >
        <path d="M258 502 c-106 -57 -169 -109 -202 -165 -28 -48 -45 -127 -27 -127 6 0 11 6 11 13 0 39 62 137 119 189 56 51 164 118 189 118 20 0 55 -132 56 -210 0 -61 -5 -86 -26 -132 -33 -71 -72 -98 -141 -98 -40 0 -54 5 -78 29 -39 40 -39 82 1 122 27 27 27 30 7 24 -40 -13 -68 -48 -70 -92 -2 -50 20 -84 70 -109 89 -44 189 -9 234 83 36 72 33 198 -7 312 -16 46 -33 86 -39 88 -5 1 -49 -19 -97 -45z"/>
    </g>
</svg>
